<svg width="64" height="64" viewBox="0 0 966 966" fill="none" xmlns="http://www.w3.org/2000/svg">
<rect width="966" height="966" rx="174" fill="#16110f"/>
<g transform="translate(158 117)"><path d="M 500.629 1.695 C 484.058 7.387, 475.446 28.527, 483.347 44.119 C 485.096 47.571, 489.426 52.952, 494.576 58.075 L 502.957 66.413 494.237 75.457 C 489.440 80.431, 471.734 98.513, 454.890 115.640 L 424.264 146.779 399.882 122.365 C 372.358 94.804, 369.839 92.994, 359.054 93.010 C 341.099 93.037, 329.802 107.973, 334.656 125.270 C 336.141 130.565, 337.462 132.516, 344.790 140.249 L 353.217 149.141 350.858 151.762 C 349.561 153.203, 347.600 155.362, 346.500 156.559 C 345.400 157.756, 328.075 175.337, 308 195.629 C 185.074 319.885, 122.969 382.871, 120.787 385.500 C 116.393 390.793, 112.825 397.161, 110.183 404.422 C 106.515 414.502, 106.353 433.830, 109.843 445 C 112.752 454.312, 118.802 466.097, 125.124 474.769 L 129.942 481.378 120.120 491.474 C 109.234 502.663, 107.560 505.878, 107.609 515.517 C 107.636 520.883, 109.549 526.685, 113.724 534.065 C 113.900 534.376, 109.021 540.001, 102.883 546.565 C 64.063 588.078, 40.876 613.884, 24.013 634.346 C 16.159 643.876, 15.130 647.339, 19.643 649.055 C 22.623 650.187, 23.548 649.773, 45 637.704 C 65.586 626.123, 62.134 629.081, 106.223 585.241 L 135.648 555.982 141.074 558.973 C 145.546 561.438, 147.665 561.967, 153.128 561.982 C 162.627 562.008, 166.115 560.137, 177.582 548.863 L 187.663 538.952 194.582 543.627 C 218.575 559.840, 242.576 562.485, 264.397 551.321 C 272.024 547.418, 274.541 544.941, 452.412 366.250 C 484.302 334.212, 510.643 308.010, 510.947 308.021 C 511.251 308.033, 514.650 310.939, 518.500 314.480 C 526.269 321.623, 531.511 324, 539.500 324 C 547.518 324, 553.343 321.525, 558.299 316.012 C 563.207 310.554, 565.010 305.660, 564.978 297.884 C 564.938 288.146, 563.162 285.778, 533.788 256.319 L 506.686 229.138 546.020 189.069 C 567.653 167.031, 585.488 149, 585.652 149 C 585.816 149, 588.999 151.991, 592.725 155.647 C 602.108 164.853, 607.992 167.504, 619 167.486 C 626.272 167.474, 628.240 167.084, 632.623 164.783 C 639.154 161.356, 645.427 154.240, 647.549 147.853 C 649.850 140.924, 649.230 129.055, 646.248 122.962 C 644.636 119.668, 628.578 103.017, 587.680 62.233 C 538.108 12.798, 530.623 5.713, 525.417 3.303 C 517.985 -0.137, 507.874 -0.793, 500.629 1.695 M 502.491 11.809 C 495.030 15.302, 490.021 23.224, 490.006 31.554 C 489.991 39.342, 492.931 42.653, 549.883 98.984 C 580.038 128.810, 606.232 154.178, 608.094 155.357 C 610.742 157.034, 613.038 157.500, 618.649 157.500 C 627.167 157.500, 632.863 154.293, 636.411 147.500 C 639.388 141.800, 639.343 130.854, 636.322 126 C 633.210 121, 525.557 14.894, 521.216 12.550 C 516.113 9.793, 507.524 9.454, 502.491 11.809 M 485.421 98.780 C 472.178 112.376, 454.659 130.391, 446.491 138.814 L 431.639 154.128 465.570 188.090 L 499.500 222.051 524.015 197.276 C 537.498 183.649, 555.256 165.623, 563.477 157.217 L 578.424 141.935 544.467 107.967 C 525.791 89.285, 510.284 74.013, 510.006 74.030 C 509.727 74.046, 498.664 85.184, 485.421 98.780 M 350.641 104.898 C 344.451 108.979, 342.096 117.945, 345.295 125.252 C 346.736 128.544, 528.312 310.527, 532.200 312.576 C 536.124 314.645, 543.874 314.374, 547.710 312.035 C 554.041 308.175, 556.768 298.406, 553.386 291.700 C 551.537 288.034, 371.219 107.715, 366.562 104.875 C 362.468 102.378, 354.446 102.390, 350.641 104.898 M 357.605 159.154 C 356.775 160.338, 342.230 175.301, 325.283 192.404 C 188.342 330.599, 131.177 388.710, 127.453 393.506 C 113.980 410.857, 113.624 436.166, 126.545 458.212 C 142.185 484.897, 188.485 530.591, 211.899 542.447 C 228.344 550.774, 248.687 549.875, 263.572 540.161 C 267.391 537.669, 289.387 516.227, 325.392 479.896 C 356.133 448.878, 408.978 395.714, 442.825 361.754 L 504.366 300.008 499.666 295.504 C 497.080 293.027, 494.565 291, 494.076 291 C 493.587 291, 440.383 344.080, 375.844 408.955 C 265.645 519.727, 258.104 527.092, 252 529.915 C 234.651 537.938, 219.047 533.853, 197.195 515.570 C 184.871 505.259, 154.692 474.139, 146.848 463.654 C 130.031 441.173, 126.777 422.255, 136.761 405 C 138.200 402.513, 155.935 383.812, 176.410 363.190 C 196.785 342.670, 213.730 325.438, 214.064 324.896 C 214.399 324.355, 234.434 304.016, 258.586 279.698 C 339.660 198.072, 370 167.191, 370 166.301 C 370 165.005, 361.625 157, 360.269 157 C 359.633 157, 358.435 157.969, 357.605 159.154 M 365.682 185.070 L 353.864 197.041 356.862 200.771 C 358.511 202.822, 365.066 209.668, 371.430 215.984 C 379.188 223.684, 383 228.191, 383 229.662 C 383 232.209, 380.548 235, 378.310 235 C 377.458 235, 369.935 228.262, 361.591 220.026 L 346.421 205.052 332.475 219.025 L 318.530 232.997 329.968 244.468 C 340.832 255.362, 341.358 256.080, 340.435 258.720 C 339.735 260.723, 338.679 261.590, 336.657 261.824 C 334.258 262.100, 332.294 260.613, 323.121 251.574 C 317.219 245.758, 311.965 240.996, 311.445 240.991 C 310.925 240.986, 304.793 246.948, 297.817 254.241 L 285.134 267.500 294.567 277.110 C 304.076 286.797, 305.703 289.897, 302.800 292.800 C 300.138 295.462, 297.327 293.880, 287.659 284.275 L 277.871 274.550 261.469 291.025 C 252.448 300.086, 245.052 308.197, 245.033 309.050 C 244.947 313.052, 243.546 313, 352.463 313 L 457.525 313 472.385 298.115 L 487.245 283.230 432.373 228.165 L 377.500 173.100 365.682 185.070 M 223.462 329.250 C 220.173 332.688, 215.494 337.623, 213.065 340.218 L 208.647 344.936 218.554 355.005 C 230.436 367.080, 230.633 367.386, 228.557 370.554 C 225.760 374.822, 223.366 373.655, 212.056 362.510 L 201.411 352.020 182.492 371.035 L 163.573 390.049 179.491 405.991 C 194.743 421.265, 195.369 422.050, 194.436 424.716 C 193.725 426.750, 192.685 427.589, 190.575 427.832 C 188.018 428.125, 185.886 426.366, 172.007 412.507 L 156.327 396.850 151.273 402.685 C 131.001 426.085, 139.510 446.280, 190.603 496.032 C 213.026 517.867, 225.987 525.228, 239.246 523.657 C 248.340 522.580, 252.361 519.314, 283.621 487.609 C 299.949 471.049, 343.500 427.238, 380.401 390.250 L 447.494 323 352.522 323 L 257.550 323 264.775 330.274 C 272.224 337.773, 273.384 340.473, 270.429 343.429 C 267.570 346.287, 265.567 345.101, 254.500 334 L 243.534 323 236.488 323 L 229.442 323 223.462 329.250 M 127.611 497.998 C 117.780 508.196, 116.191 511.834, 118.129 519.704 C 119.166 523.917, 120.901 526.100, 132.405 537.670 C 151.591 556.965, 155.034 557.324, 170.555 541.647 L 179.611 532.500 157.850 510.851 L 136.090 489.203 127.611 497.998 M 100.920 563.171 C 49.276 619.397, 42.469 627, 43.766 627 C 44.303 627, 48.260 624.705, 52.557 621.899 C 58.318 618.138, 69.252 607.981, 94.185 583.228 C 112.783 564.764, 128 549.148, 128 548.525 C 128 547.902, 126.502 545.940, 124.670 544.165 L 121.341 540.938 100.920 563.171 M 23.174 659.688 C 19.989 660.960, 6.099 685.957, 2.530 696.841 C -1.897 710.341, 3.667 724.767, 15.347 730.070 C 20.799 732.546, 30.157 732.566, 35.556 730.114 C 43.462 726.523, 50 715.719, 50 706.245 C 50 698.953, 43.234 683.170, 33.177 667 C 28.504 659.486, 26.799 658.240, 23.174 659.688 M 21.037 680.937 C 8.593 702.243, 7.779 713.626, 18.241 720.005 C 22.393 722.537, 28.580 722.553, 32.696 720.044 C 41.313 714.789, 41.994 705.304, 34.786 690.912 C 32.194 685.735, 28.991 679.744, 27.669 677.598 L 25.266 673.696 21.037 680.937" stroke="none" fill="#f4efe9" fill-rule="evenodd"/></g>
</svg>
